<?xml version='1.0' encoding='UTF-8'?>
<svg x="0px" y="0px" viewBox="0 0 32 32" version="1.1" xmlns="http://www.w3.org/2000/svg" xmlns:xlink="http://www.w3.org/1999/xlink" xml:space="preserve" id="Layer_1" style="enable-background:new 0 0 32 32">
  <style type="text/css">
	.Yellow{fill:#FFB115;}
	.Red{fill:#D11C1C;}
	.Blue{fill:#1177D7;}
	.Green{fill:#039C23;}
	.Black{fill:#727272;}
	.White{fill:#FFFFFF;}
	.st0{opacity:0.5;}
	.st1{display:none;}
	.st2{display:inline;fill:#039C23;}
	.st3{display:inline;fill:#D11C1C;}
	.st4{display:inline;fill:#727272;}
</style>
  <g id="ChangeView">
    <path d="M24.5,7.5C22.3,5.3,19.3,4,16,4C10.1,4,5.1,8.3,4.2,14h4.1c0.9-3.4,4-6,7.7-6c2.2,0,4.2,0.9,5.6,2.4L18,14   h5.7h4.1H28V4L24.5,7.5z M16,24c-2.2,0-4.2-0.9-5.6-2.4L14,18H8.2h-4H4v10l3.5-3.5C9.7,26.7,12.7,28,16,28c5.9,0,10.8-4.3,11.8-10   h-4.1C22.8,21.4,19.7,24,16,24z" class="Blue" />
  </g>
</svg>